<svg width="64" height="64" viewBox="0 0 64 64" fill="none" xmlns="http://www.w3.org/2000/svg">
<path d="M36.8854 44.182C37.4361 44.4349 38.0566 44.4927 38.6445 44.3458C39.2325 44.199 39.7529 43.8562 40.12 43.374L41.0667 42.134C41.5635 41.4716 42.2077 40.934 42.9482 40.5637C43.6888 40.1934 44.5054 40.0006 45.3334 40.0006H53.3334C54.7479 40.0006 56.1044 40.5626 57.1046 41.5627C58.1048 42.5629 58.6667 43.9195 58.6667 45.334V53.334C58.6667 54.7485 58.1048 56.105 57.1046 57.1052C56.1044 58.1054 54.7479 58.6673 53.3334 58.6673C40.603 58.6673 28.394 53.6102 19.3922 44.6084C10.3905 35.6067 5.33337 23.3977 5.33337 10.6673C5.33337 9.25283 5.89528 7.89628 6.89547 6.89608C7.89566 5.89589 9.25222 5.33398 10.6667 5.33398H18.6667C20.0812 5.33398 21.4377 5.89589 22.4379 6.89608C23.4381 7.89628 24 9.25283 24 10.6673V18.6673C24 19.4953 23.8073 20.3119 23.437 21.0525C23.0667 21.793 22.5291 22.4372 21.8667 22.934L20.6187 23.87C20.1291 24.2438 19.7841 24.7755 19.6421 25.3749C19.5002 25.9743 19.5701 26.6043 19.84 27.158C23.4845 34.5603 29.4785 40.5468 36.8854 44.182Z" stroke="black" stroke-opacity="0.3" stroke-width="4" stroke-linecap="round" stroke-linejoin="round"/>
</svg>
